<?xml version="1.0" encoding="utf-8"?>
<!-- Generator: Adobe Illustrator 25.2.3, SVG Export Plug-In . SVG Version: 6.00 Build 0)  -->
<svg version="1.1" id="Layer_1" xmlns="http://www.w3.org/2000/svg" xmlns:xlink="http://www.w3.org/1999/xlink" x="0px" y="0px"
	 viewBox="0 0 3108.7 2515.8" style="enable-background:new 0 0 3108.7 2515.8;" xml:space="preserve">
<style type="text/css">
	.st0{fill:#FFFFFF;}
	.st1{opacity:0.35;}
	.st2{fill:#371A45;}
	.st3{fill:#22A7F0;}
	.st4{fill:#220F2D;}
	.st5{opacity:0.7;}
	.st6{fill:#FFE266;}
	.st7{fill:#7A2FFC;}
	.st8{opacity:0.3;}
	.st9{fill:#6B184E;}
	.st10{fill:#DB2C2C;}
</style>
<g>
	<g>
		<g>
			<g>
				<path class="st0" d="M1981.9,1007.2c0,0,263.9-20.2,341.6,33.5c139.9,96.9,179.1,621,70.5,806.8c-79.8,136.4-568.5,66-568.5,66"
					/>
			</g>
			<g class="st1">
				<path class="st2" d="M2394,1847.6c-79.7,136.4-568.5,66-568.5,66l42.8-248.2c106.3,12.6,471.5,46.5,539.5-69.7
					c21.2-36.2,36.8-85.3,47-141.6C2462.4,1607.2,2443.6,1762.7,2394,1847.6z"/>
			</g>
			<g>
				<path class="st2" d="M2086.2,1947c-2.1,0-4.3,0-6.5,0c-131.7-0.5-255.2-18.1-256.5-18.3c-8.3-1.2-14.1-8.9-12.9-17.3
					c1.2-8.3,9-14.1,17.3-12.9c133.1,19.2,492,46,553.2-58.6c106.7-182.4,63.5-696.9-66-786.5c-60-41.5-259.8-36.3-331.7-30.8
					c-8.4,0.6-15.7-5.6-16.4-14.1c-0.6-8.4,5.6-15.7,14.1-16.4c11-0.8,270.3-20,351.4,36.2c68.8,47.6,119.2,190.2,135,381.4
					c12,145.4,2.5,338.8-60,445.7C2371.6,1916.1,2263.6,1947,2086.2,1947z"/>
			</g>
			<g>
				<path class="st0" d="M2442.1,1472.3l-135.5,10.5c-12.1,0.9-22.1,9.9-24.2,21.8c-7.8,43.8-20.6,145.7,22,179.3
					c35.4,27.9,92.7,24.5,126.2-4.1c37.5-31.9,41-131.9,40.2-181.4C2470.6,1483.1,2457.5,1471.1,2442.1,1472.3z"/>
			</g>
			<g class="st1">
				<path class="st2" d="M2282.4,1504.7c-7.8,43.7-20.6,145.7,22,179.3c35.4,27.9,92.7,24.5,126.2-4c23.1-19.6,33.2-65,37.5-108.5
					c-6.1,21.8-15.6,39.4-27.5,51.1c-68.2,66.5-119.4-11.6-119.4-11.6s-8.8,19-15.9,20.1c-29.5,4.6-23.6-87.8-19.4-135.5
					C2284.2,1498.2,2283,1501.3,2282.4,1504.7z"/>
			</g>
			<g>
				<path class="st2" d="M2363.9,1718.5c-25.1,0-49.9-7.4-69-22.5c-47.5-37.4-37.7-137.6-27.6-194c3.3-18.8,19-32.9,38-34.4
					l135.5-10.5c11.5-0.9,23,3.1,31.5,10.8c8.5,7.8,13.5,18.8,13.7,30.4c1,69.6-6.1,159.6-45.6,193.3
					C2419.5,1709.4,2391.5,1718.5,2363.9,1718.5z M2443.3,1487.5l-135.5,10.5c-5.2,0.4-9.4,4.2-10.3,9.3
					c-14.9,83.3-8.7,144.8,16.4,164.6c28.9,22.7,77.8,21,106.9-3.7c23.1-19.6,36.1-83,34.9-169.6c0-3.2-1.4-6.1-3.7-8.3
					C2449.5,1488.3,2446.5,1487.3,2443.3,1487.5L2443.3,1487.5z"/>
			</g>
			<g>
				<path class="st2" d="M2365.7,1715c-3-1.7-4.5-2.9-6.5-4.4c-1.8-1.4-3.6-2.9-5.2-4.4c-3.3-3-6.4-6.2-9.2-9.5
					c-5.6-6.7-10.6-13.8-14.4-21.4c-8-15-12.9-31.2-15.2-47.3c-1-8.1-1.9-16.2-2-24.2c-0.4-8.1,0-15.8,0.3-23.8
					c0.4-7.9,1-15.8,2.1-23.7c1.2-8,2.3-15.5,5.2-23.9c0.7-2.1,3-3.2,5.1-2.4c2,0.7,3,2.7,2.6,4.7l-0.1,0.5
					c-1.6,6.5-2.1,14.5-2.4,21.9c-0.2,7.6-0.1,15.2,0.3,22.8c0.9,15.3,2.5,30.3,6,44.6c3.6,14.3,9.3,27.8,17.2,39.4
					c3.8,5.9,8.4,11.2,13.3,15.9c2.4,2.4,5,4.5,7.7,6.4c1.3,1,2.6,1.9,4,2.7c1.2,0.7,2.9,1.7,3.4,1.8c7.2,2.2,11.2,9.8,9,17
					c-2.2,7.2-9.8,11.2-17,9c-0.9-0.3-1.8-0.7-2.7-1.1L2365.7,1715z"/>
			</g>
			<g>
				<path class="st2" d="M2141,1102.1c-5.8,0-11.3-3.3-13.9-8.9c-3.5-7.7-0.1-16.7,7.5-20.2c123.8-56.7,199.6-39.8,202.8-39
					c8.2,1.9,13.3,10.2,11.3,18.4c-1.9,8.2-10.1,13.3-18.3,11.4c-1-0.2-70-14.8-183.1,37C2145.3,1101.7,2143.1,1102.1,2141,1102.1z"
					/>
			</g>
		</g>
		<g>
			<path class="st0" d="M1442.1,1103.7c0,0-121.2,363.9-453.9,481.4v223.2h453.9V1103.7z"/>
		</g>
		<g>
			<path class="st0" d="M1442.1,1103.7v704.6H988.2v-223.2C1320.9,1467.6,1442.1,1103.7,1442.1,1103.7z"/>
		</g>
		<g class="st1">
			<path class="st2" d="M1442.1,1246v562.3h-400.6C1333.9,1663.1,1442.1,1246,1442.1,1246z"/>
		</g>
		<g>
			<path class="st2" d="M1457.4,1823.6H973v-249.3l10.2-3.6c321.5-113.5,443.3-468.3,444.5-471.8l29.7-89V1823.6z M1003.5,1793
				h423.4v-613.5c-16.8,35.2-41.2,80.6-74.3,129.4c-65.6,96.4-179,223.4-349.1,286.9V1793z"/>
		</g>
		<g>
			<path class="st0" d="M2292.8,1808.3h-989.1c0,0,54.5-273.8,103.9-569.3c7.7-45.8,15.2-92.1,22.4-138
				c60.1-383.2,633.4-133.3,633.4-133.3s22.4,30.6,53.2,91.1C2180.3,1183.7,2280.2,1436.2,2292.8,1808.3z"/>
		</g>
		<g>
			<path class="st2" d="M2308.5,1823.6H1285l3.6-18.2c0.7-3.6,73.2-368.9,126.2-706.7c13.8-88.1,55-151.5,122.3-188.5
				c189.2-103.9,518.3,37.4,532.2,43.5l3.8,1.7l2.4,3.3c2.2,3,54.5,75.4,109.6,216.8c50.6,129.9,113,345.1,122.7,632.4
				L2308.5,1823.6z M1322.2,1793h954.7c-20.5-499.1-200.8-779.6-223.6-813.1c-37.6-15.6-335.9-134-501.5-43.1
				c-58.6,32.2-94.5,88.2-106.8,166.4C1398.7,1398.7,1337.5,1714.8,1322.2,1793z"/>
		</g>
		<g>
			<g class="st1">
				<path class="st2" d="M1772.1,1849.7c-1.6,8.3-3,16.4-4.4,24.4C1769,1866.2,1770.5,1858,1772.1,1849.7z"/>
			</g>
			<g class="st1">
				<path class="st2" d="M1395,1485.8c-9.3,83.4-14.7,155.7-15.8,216C1377.7,1645.6,1383.1,1573.2,1395,1485.8z"/>
			</g>
			<g>
				
					<ellipse transform="matrix(0.7071 -0.7071 0.7071 0.7071 -741.9843 1425.3112)" class="st0" cx="1349.5" cy="1608.3" rx="71" ry="71"/>
			</g>
			<g class="st1">
				<path class="st2" d="M1278.6,1610.1c1,39.2,33.6,70.1,72.8,69.1s70.1-33.6,69.1-72.8c-0.3-10.8-3-21.1-7.6-30.1
					c-10.8,24.3-34.8,41.5-63.1,42.3c-28.3,0.7-53.2-15.3-65.2-38.9C1280.5,1588.9,1278.3,1599.3,1278.6,1610.1z"/>
			</g>
			<g>
				<path class="st2" d="M1349.5,1691.8c-45,0-82.2-36-83.4-81.3l0,0c-0.6-22.3,7.6-43.5,22.9-59.6c15.3-16.2,36.1-25.4,58.4-26
					c22.4-0.6,43.5,7.6,59.6,22.9c16.2,15.3,25.4,36.1,26,58.4c1.2,46-35.3,84.4-81.3,85.6C1351,1691.8,1350.2,1691.8,1349.5,1691.8
					z M1349.5,1549.8c-0.5,0-1,0-1.6,0c-15.6,0.4-30.1,6.9-40.9,18.2c-10.7,11.3-16.4,26.2-16,41.8c0.8,32.2,27.9,57.6,60,56.9
					c32.2-0.8,57.8-27.7,56.9-60c-0.4-15.6-6.9-30.1-18.2-40.9C1378.8,1555.5,1364.6,1549.8,1349.5,1549.8z"/>
			</g>
			<g>
				<g class="st1">
					<path class="st2" d="M1383.9,1677.5c12.1-79.7,14.4-153.5,11.1-219.3c-1.6,38-5.2,77.8-11.6,119.3
						c-7.4,48.7-9.6,99.5-5.1,149.3C1379.5,1710.2,1381.5,1693.7,1383.9,1677.5z"/>
				</g>
				<g>
					<path class="st0" d="M1452.2,1814.9l370.6,19c43.9,2.3,81.6-31.8,83.9-75.7l10.1-197.2c2-38.4-23.9-72.2-59.8-81.5
						c-5.1-1.4-10.4-2.1-15.9-2.4l-370.5-19c-43.9-2.3-81.7,31.8-83.9,75.7l-8.1,156.2l-2.1,41
						C1374.2,1774.9,1408.3,1812.6,1452.2,1814.9z"/>
				</g>
				<g class="st1">
					<path class="st2" d="M1452.2,1814.9l370.6,19c43.9,2.3,81.6-31.8,83.9-75.7l10.1-197.2c2-38.4-23.9-72.2-59.8-81.5
						c-21.8,12.9-35.6,21.1-35.6,21.1c-26.2,157.4-75.3,234-272,227.1c-84.9-3-137.8-18.7-170.7-37.8l-2.1,41
						C1374.2,1774.9,1408.3,1812.6,1452.2,1814.9z"/>
				</g>
				<g>
					<path class="st2" d="M1826.9,1849.3c-1.6,0-3.3,0-5-0.1h0l-370.5-19.1c-25.3-1.3-48.6-12.4-65.7-31.4
						c-17.1-18.9-25.8-43.3-24.5-68.6l10.1-197.2c2.7-52.4,47.6-92.8,99.9-90.2l370.6,19.1c52.4,2.7,92.8,47.5,90.2,99.9
						l-10.1,197.2c-1.3,25.3-12.4,48.6-31.4,65.7C1872.9,1840.7,1850.4,1849.3,1826.9,1849.3z M1823.5,1818.7
						c35.5,1.9,66-25.6,67.9-61.2l10.1-197.2c1.8-35.6-25.6-66-61.2-67.9l-370.5-19.1c-17.2-0.9-33.7,5-46.6,16.6
						c-12.9,11.6-20.4,27.4-21.3,44.6l-10.1,197.2c-0.9,17.2,5,33.7,16.6,46.6c11.6,12.9,27.4,20.4,44.6,21.3L1823.5,1818.7
						L1823.5,1818.7z"/>
				</g>
				<g>
					<path class="st0" d="M1437.4,1812.7c4.8,1.2,9.7,2,14.8,2.2l370.6,19c32.1,1.6,61-16.2,75-43.2c5.1-9.8,8.3-20.8,8.8-32.5
						l4.5-87.6l1.5-28.9l4.1-80.7c2.3-43.9-31.8-81.6-75.7-83.9l-80.1-4.1c36.6,8.9,63,42.8,61,81.7l-5.4,106.5l-4.7,90.7
						c-2.3,43.9-40,78-83.9,75.7L1437.4,1812.7z"/>
				</g>
				<g class="st1">
					<path class="st2" d="M1437.4,1812.7c4.8,1.2,9.7,2,14.8,2.2l370.6,19c43.9,2.3,81.6-31.8,83.8-75.7l6-116.5
						c-10.4,20.1-28.4,44.5-55.4,45.8c-14.8,0.7-28.7-10.6-40.7-26.3l-4.7,90.7c-2.3,43.9-40,78-83.9,75.7L1437.4,1812.7z"/>
				</g>
				<g>
					<path class="st2" d="M1827,1849.3c-1.7,0-3.3,0-5-0.1l-370.6-19.1c-5.9-0.3-12-1.2-17.8-2.7l4.6-30l290.6,15
						c17.1,0.9,33.6-5,46.5-16.6c12.9-11.6,20.4-27.5,21.3-44.6l10.1-197.2c1.6-31-19.2-58.8-49.3-66.1l4.4-30.1l80,4.1
						c25.3,1.3,48.6,12.5,65.7,31.4c17.1,18.9,25.8,43.3,24.4,68.6l-10.1,197.2c-1.3,25.3-12.4,48.6-31.4,65.7
						C1872.9,1840.7,1850.5,1849.3,1827,1849.3z M1797,1817.3l26.6,1.4c17.1,0.9,33.7-5,46.5-16.6c12.9-11.6,20.4-27.5,21.3-44.6v0
						l10.1-197.2c0.9-17.2-5-33.7-16.6-46.6c-11.6-12.9-27.5-20.4-44.6-21.3l-23.9-1.2c14.2,17.7,22.1,40.4,20.8,64.4l-10.1,197.2
						C1825.9,1777.5,1815.2,1800.3,1797,1817.3z"/>
				</g>
				<g>
					<path class="st3" d="M1670.8,1647.4c-0.3,7.3,7.2,66.6,7.2,66.6s18.7,0.9,41.6,1.9c28.6,1.3,53.2-27.3,54.8-63.8
						c1.7-36.6-20.2-67.2-48.8-68.5c-19.3-0.9-41.6-1.9-41.6-1.9S1671.3,1635.5,1670.8,1647.4z"/>
				</g>
				<g class="st1">
					<path class="st2" d="M1670.8,1647.4c-0.3,7.3,7.2,66.6,7.2,66.6s18.7,0.9,41.6,1.9c28.6,1.3,53.2-27.3,54.8-63.8
						c1.7-36.6-20.2-67.2-48.8-68.5c-19.3-0.9-41.6-1.9-41.6-1.9S1671.3,1635.5,1670.8,1647.4z"/>
				</g>
				<g>
					<path class="st2" d="M1721.4,1727.5c-0.8,0-1.6,0-2.4-0.1l-28.9-1.3c-13-0.6-23.5-10.4-25.1-23.2c-6-49.1-5.8-54.1-5.7-56
						c0.3-7,3.9-25.6,10.7-55.5c2.9-12.5,14.3-21.2,27.1-20.6l29,1.3c17.4,0.8,33.3,10,44.6,25.9c10.7,15,16.1,34.4,15.1,54.7
						C1783.9,1694.5,1755.3,1727.5,1721.4,1727.5z M1682.2,1647.9c0,1,0.2,8.2,5.6,52.1c0.2,1.7,1.7,3.1,3.4,3.2l28.9,1.3
						c22.4,1,41.5-22.7,42.9-52.9c0.7-15.1-3.2-29.5-10.9-40.3c-7.1-10-16.7-15.8-27-16.3l-29-1.3c-1.8,0-3.3,1.1-3.7,2.8
						C1683.3,1636.2,1682.3,1645.9,1682.2,1647.9z M1670.8,1647.4L1670.8,1647.4L1670.8,1647.4z"/>
				</g>
				<g>
					
						<ellipse transform="matrix(4.560387e-02 -0.999 0.999 4.560387e-02 -41.8057 3252.0198)" class="st3" cx="1681" cy="1647.9" rx="66.3" ry="51.9"/>
				</g>
				<g>
					<path class="st0" d="M1732.9,1650.2c-0.3,7.6-1.7,14.8-3.9,21.5c0.7-35.6-20.8-65-48.8-66.3c-22.7-1-42.8,16.7-51,42.3
						c0-0.8,0-1.5,0-2.3c1.7-36.6,26.2-65.1,54.8-63.8C1712.7,1583,1734.5,1613.7,1732.9,1650.2z"/>
				</g>
				<g class="st1">
					<path class="st2" d="M1732.9,1650.2c-1.7,36.6-26.2,65.1-54.8,63.8c-28.6-1.3-50.5-32-48.8-68.6c0.3-7.1,1.5-13.9,3.5-20.2
						c7.1,23.2,24.4,39.8,45.3,40.8c23,1,43.5-17.3,51.4-43.6C1732.1,1631,1733.3,1640.4,1732.9,1650.2z"/>
				</g>
				<g>
					<path class="st2" d="M1679.9,1725.6c-0.8,0-1.6,0-2.5-0.1c-34.9-1.6-61.7-37.7-59.7-80.5v0c2-42.8,31.8-76.4,66.8-74.7
						c17.4,0.8,33.3,10,44.6,25.9c10.7,15,16.1,34.4,15.1,54.7c-0.9,20.2-8,39.1-20.1,53C1712.1,1717.9,1696.5,1725.6,1679.9,1725.6
						z M1640.6,1646c-1.4,30.2,15.6,55.6,37.9,56.6c10.2,0.5,20.3-4.4,28.3-13.7c8.7-10.1,13.9-24,14.6-39.2
						c0.7-15.1-3.2-29.5-10.9-40.3c-7.1-10-16.7-15.8-27-16.3C1661.1,1592.1,1642,1615.9,1640.6,1646L1640.6,1646z"/>
				</g>
				<g>
					<path class="st2" d="M1567.5,1830.8c-0.1,0-0.2,0-0.3,0c-6.3-0.2-11.3-5.4-11.1-11.8l3.6-130.8l-61.5-43.2l8.9-184.9
						c0.3-6.3,5.8-11.1,12-10.9c6.3,0.3,11.2,5.7,10.9,12l-8.3,172.3l61.3,43.1l-4,143.1C1578.7,1825.9,1573.7,1830.8,1567.5,1830.8
						z"/>
				</g>
			</g>
			<g>
				<path class="st0" d="M2238.5,1557.7c0,0,34.3,27.3,35.8,69.4c1.7,48.7-28.7,68.4-28.7,68.4s-133.3,68.2-347.1,22.9
					c0,0-62.9-79.5,7.2-124.4C1905.7,1593.9,2131.4,1624.9,2238.5,1557.7z"/>
			</g>
			<g class="st1">
				<path class="st2" d="M2274.3,1627.1c1.7,48.6-28.7,68.4-28.7,68.4s-133.3,68.3-347.1,22.9c0,0-20.7-26.2-25.1-57
					c1,1.5,1.7,2.3,1.7,2.3c156.3,33.2,269.6,5.6,319.2-11.6c34.5-12,57.5-43.3,56.7-78.2c0-0.5,0-1,0-1.5c0-0.8,0-1.6-0.2-2.4
					C2260.7,1582,2273.4,1601.9,2274.3,1627.1z"/>
			</g>
			<g>
				<path class="st2" d="M2043.4,1749.3c-43.6,0-93.2-4.4-148-16l-5.4-1.1l-3.4-4.3c-1.5-1.8-35.8-45.8-28.1-91.3
					c3.8-22.7,16.9-41.3,39.1-55.5l4.7-3l5.6,0.8c2.2,0.3,221.5,29.4,322.7-34.1l9.2-5.8l8.5,6.7c1.6,1.3,39.8,32.2,41.5,80.8
					c2,56.7-34.1,80.8-35.7,81.8l-1.3,0.8C2248.4,1711.2,2172,1749.3,2043.4,1749.3z M1907.5,1704.7
					c193.3,39.4,318.8-16.9,330.4-22.4c3.5-2.6,22.5-18.8,21.2-54.7c-0.8-23.2-14.2-41.5-22.8-50.9
					c-104.5,56.6-290.5,37.5-326.7,33.2c-12,8.8-18.9,19.3-21,31.8C1884.3,1666.9,1900.5,1694.3,1907.5,1704.7z"/>
			</g>
		</g>
		<g>
			<g class="st1">
				<path class="st2" d="M2116.5,1058.7c-90.8,123.6-226.9,204.7-375.5,228c-10.9,1.7-21.9,3.1-32.9,4.2
					c-30.2,2.9-60.9,3.5-91.7,1.6c-25.5-1.6-51.1-4.9-76.6-10c-29.6-5.9-59.1-14.2-88.3-25c-9.7-3.6-19.2-7.4-28.5-11.5
					c-5.2-2.3-10.4-4.6-15.5-7c7.7-45.8,15.2-92.1,22.4-138c60.1-383.2,633.4-133.3,633.4-133.3S2085.7,998.3,2116.5,1058.7z"/>
			</g>
			<g>
				<path class="st0" d="M1141,938.2c49.9,82.4,120.6,152.7,208.1,202.2c17.9,10.1,36.3,19.3,55.5,27.6c9.3,4.1,18.8,7.9,28.5,11.5
					c29.2,10.8,58.7,19.1,88.3,25c25.5,5.1,51.1,8.4,76.6,10c30.8,2,61.4,1.3,91.6-1.6c11-1.1,22-2.5,32.9-4.2
					c199.3-31.3,376.3-166.5,451.4-369.1c110.8-298.4-41.4-630.1-339.7-740.9c-57.5-21.3-116.2-32.9-174.4-35.5
					c-6.8-0.4-13.6-0.5-20.4-0.6c-18.2-0.2-36.4,0.5-54.4,2c-41.7,3.6-82.6,11.7-122,24c-39.5,12.2-77.5,28.7-113.4,49
					c-11.4,6.5-22.6,13.3-33.6,20.5c-16.5,10.9-32.4,22.6-47.7,35.2c-76.6,62.6-138,145.7-174.9,245.2
					C1029.7,610.2,1053,792.8,1141,938.2z"/>
				<path class="st2" d="M1633.8,1217.2c-12,0-23.9-0.4-35.8-1.1c-25.9-1.6-51.8-5-76.8-10.1c-29.9-5.9-59.7-14.4-88.6-25.1
					c-10.6-4-20-7.8-28.6-11.5c-18.8-8.1-37.5-17.4-55.6-27.7c-85.5-48.4-157.7-118.5-208.7-202.7c-92.1-152-109.5-334.6-47.7-500.9
					c35.7-96.2,96.3-181.2,175.4-245.8c14.9-12.3,31-24.1,47.8-35.3c10.8-7.1,22.1-14,33.7-20.6c36-20.4,74.2-36.9,113.7-49.2
					c39.8-12.4,81-20.5,122.4-24c18-1.5,36.4-2.2,54.6-2c7.3,0,14,0.2,20.5,0.6c59.3,2.6,118.1,14.6,174.8,35.6
					c298.7,110.9,451.5,444.2,340.7,742.9c-72.6,195.8-246.1,337.6-452.6,370c-10.9,1.7-21.9,3.1-32.9,4.2
					C1671.3,1216.2,1652.5,1217.2,1633.8,1217.2z M1142.3,937.4c50.8,83.8,122.6,153.5,207.6,201.6c18,10.2,36.6,19.4,55.3,27.5
					c8.6,3.7,17.9,7.5,28.5,11.5c28.7,10.7,58.4,19.1,88.1,25c24.9,5,50.6,8.4,76.4,10c30.2,1.9,60.9,1.4,91.4-1.6
					c10.9-1.1,22-2.5,32.8-4.2c205.5-32.3,378-173.3,450.2-368.1c110.3-297.1-41.7-628.6-338.8-738.9
					c-56.4-20.9-114.9-32.8-173.9-35.4c-6.5-0.4-13.1-0.5-20.4-0.6c-18.1-0.2-36.4,0.5-54.3,2c-41.1,3.5-82.1,11.6-121.7,23.9
					c-39.3,12.2-77.3,28.6-113.1,48.9c-11.5,6.5-22.8,13.4-33.5,20.5c-16.7,11.1-32.7,22.9-47.6,35.1
					c-78.6,64.2-138.9,148.8-174.4,244.5C1033.4,604.5,1050.7,786.2,1142.3,937.4z"/>
			</g>
			<g class="st1">
				<path class="st2" d="M2174,839.6c-75.1,202.6-252.1,337.8-451.4,369.1c-10.9,1.7-21.8,3.1-32.8,4.2c-30.2,3-60.9,3.5-91.6,1.6
					c-25.5-1.6-51.1-4.9-76.6-10c-29.6-5.9-59.1-14.2-88.4-25c-9.7-3.7-19.2-7.5-28.5-11.5c-19.2-8.3-37.6-17.6-55.5-27.6
					c-87.5-49.5-158.2-119.8-208.2-202.2c-27.4-45.3-48.6-94.2-62.8-145.3c49.4,77.6,117.6,143.7,201.1,190.9
					c17.8,10.1,36.3,19.3,55.5,27.6c9.3,4.1,18.8,7.8,28.5,11.5c29.2,10.8,58.7,19.2,88.3,25c25.5,5.1,51.1,8.4,76.6,10
					c30.8,1.9,61.4,1.3,91.6-1.6c11-1.1,22-2.5,32.9-4.2c199.3-31.3,376.3-166.4,451.4-369.1c43.9-118.2,46.5-241.6,15.1-354.4
					C2213.2,475.7,2239.4,663.5,2174,839.6z"/>
			</g>
			<g>
				<path class="st2" d="M1633.8,1227.5c-12.2,0-24.4-0.4-36.4-1.1c-26.4-1.7-52.7-5.1-78.2-10.2c-30.4-6-60.7-14.6-90.1-25.5
					c-10.8-4.1-20.3-7.9-29.1-11.8c-19.1-8.3-38.2-17.7-56.6-28.1c-87-49.2-160.5-120.6-212.4-206.4
					c-93.7-154.7-111.4-340.5-48.6-509.9c36.3-97.9,98.1-184.5,178.5-250.2c15.2-12.5,31.6-24.6,48.7-35.9c11-7.2,22.5-14.3,34.3-21
					c36.6-20.7,75.6-37.6,115.7-50c40.5-12.6,82.4-20.9,124.5-24.4c18.3-1.6,37-2.3,55.5-2c7.4,0,14.3,0.2,21,0.6
					c60.3,2.7,120.2,14.9,177.9,36.2c304,112.9,459.6,452.1,346.7,756.1c-73.9,199.3-250.4,343.6-460.7,376.6
					c-11.1,1.7-22.3,3.2-33.5,4.3C1671.9,1226.5,1652.8,1227.5,1633.8,1227.5z M1151.1,932c49.9,82.3,120.4,150.8,203.8,198
					c17.7,10,36,19.1,54.4,27c8.5,3.7,17.6,7.4,28,11.3c28.1,10.4,57.3,18.7,86.5,24.5c24.5,4.9,49.7,8.2,75.1,9.8
					c29.6,1.9,59.8,1.4,89.7-1.6c10.7-1.1,21.6-2.5,32.2-4.1c201.8-31.7,371.2-170.2,442.1-361.5c108.3-291.8-41-617.3-332.8-725.7
					c-55.4-20.5-112.8-32.2-170.8-34.8c-6.4-0.3-12.9-0.5-20-0.6c-17.8-0.2-35.8,0.5-53.4,2c-40.4,3.4-80.6,11.3-119.5,23.5
					c-38.6,12-76,28.1-111.1,48c-11.3,6.4-22.4,13.2-32.9,20.1c-16.4,10.9-32.2,22.5-46.7,34.4c-77.2,63.1-136.4,146.1-171.3,240.1
					C1044.2,605.2,1061.2,783.5,1151.1,932z"/>
			</g>
			<g>
				<path class="st2" d="M1633.8,1230.9c-12.3,0-24.5-0.4-36.7-1.2c-26.5-1.7-53-5.1-78.7-10.3c-30.6-6.1-61.1-14.7-90.6-25.7
					c-10.9-4.1-20.5-8-29.3-11.8c-19.2-8.3-38.4-17.8-56.9-28.3c-87.5-49.5-161.4-121.3-213.7-207.6l0,0
					c-94.3-155.6-112.1-342.5-48.8-512.8c36.5-98.5,98.6-185.5,179.5-251.7c15.3-12.5,31.7-24.7,49-36.1c11-7.3,22.6-14.4,34.5-21.1
					c36.8-20.9,76-37.8,116.4-50.3c40.8-12.7,82.9-21,125.3-24.6c18.4-1.6,37.3-2.2,55.9-2.1c7.4,0,14.4,0.2,21.1,0.6
					c60.6,2.7,120.8,15,178.9,36.5c305.8,113.5,462.3,454.7,348.8,760.5c-74.4,200.4-251.9,345.6-463.4,378.8
					c-11.1,1.7-22.5,3.2-33.7,4.3C1672.2,1229.9,1652.9,1230.9,1633.8,1230.9z M1154.1,930.2c49.6,81.8,119.6,149.9,202.6,196.8
					c17.6,9.9,35.8,19,54,26.9c8.4,3.7,17.5,7.3,27.9,11.2c28,10.4,56.9,18.6,85.9,24.3c24.3,4.9,49.4,8.2,74.6,9.8
					c29.5,1.9,59.5,1.4,89.2-1.6c10.7-1.1,21.4-2.5,32-4.1c200.5-31.5,368.9-169.2,439.4-359.3c107.7-290-40.7-613.6-330.7-721.3
					c-55-20.4-112.1-32-169.7-34.6c-6.4-0.3-12.8-0.5-19.8-0.5c-17.8-0.2-35.6,0.5-53.1,2c-40.1,3.4-80.1,11.3-118.8,23.3
					c-38.3,11.9-75.5,28-110.4,47.8c-11.3,6.4-22.3,13.1-32.7,20c-16.3,10.8-32,22.3-46.4,34.2c-76.7,62.7-135.6,145.3-170.3,238.7
					C1047.8,605.4,1064.7,782.7,1154.1,930.2L1154.1,930.2z"/>
			</g>
			<g>
				<path class="st2" d="M1233.1,1053.6c348.6,219.4,799.3,29.2,803.9-378.8c3.1-277.6-266.3-494.9-533-480.8
					c-194.2,10.3-379.2,105.2-445.7,410.9c0,0-8.5,139.9,33.7,230.7s98.5,172,98.5,172L1233.1,1053.6z"/>
			</g>
			<g>
				<path class="st4" d="M2036.9,674.8c-4.5,407.9-455.2,598.1-803.8,378.8l-8.6-9.3c374.3,48.3,733.3-191.8,745.6-604.1
					C2012.9,509.3,2037.9,589.2,2036.9,674.8z"/>
			</g>
			<g>
				<path class="st2" d="M1545.1,1220.2c-8,0-16.1-0.2-24.1-0.5l-2.4-0.3c-30.6-6.1-61.1-14.7-90.7-25.7c-10.9-4.1-20.5-8-29.3-11.8
					c-19.2-8.3-38.4-17.8-56.9-28.3c-87.5-49.5-161.4-121.3-213.7-207.6c-94.3-155.6-112.1-342.5-48.8-512.8
					c36.5-98.5,98.6-185.5,179.5-251.7l1.2-1l1.4-0.7c67.7-35.1,147.2-55.2,236.4-60c159-8.4,325.7,55.5,446.1,171
					c110.7,106.1,170.7,242.8,169.1,384.8c-1.7,154.3-58.3,288.8-163.5,389C1844.8,1164.2,1698.6,1220.2,1545.1,1220.2z
					 M1523.3,1189.3c153.6,5.6,301.1-47.9,405-146.7c99.2-94.4,152.4-221.4,154.1-367.2c1.5-133.5-55.2-262.2-159.7-362.4
					c-114.4-109.8-272.7-170.6-423.3-162.6c-84.2,4.5-159.1,23.2-222.5,55.8c-76.1,62.6-134.5,144.7-169,237.6
					c-60,161.5-43.1,338.8,46.3,486.4c49.6,81.8,119.6,149.9,202.6,196.8c17.6,9.9,35.8,19,54,26.9c8.4,3.7,17.5,7.3,27.9,11.2
					C1466.1,1175.4,1494.7,1183.5,1523.3,1189.3z"/>
			</g>
			<g>
				<path class="st2" d="M1546.5,1161.1c-109.7,0-221.7-31.8-321.5-94.6l-1.7-1.1l-45.3-49.1c-2.3-3.4-57.6-83.3-99.8-174.3
					c-43.3-93.2-35.4-232.2-35.1-238l0.3-2.3c58.2-267.6,212.9-409.8,459.8-422.9c141.9-7.4,290.7,49.6,398.1,152.6
					c98.8,94.8,152.4,216.8,151,343.6c-2,183.1-92.6,336.8-248.5,421.8C1724.7,1139.8,1636.3,1161.1,1546.5,1161.1z M1242.9,1041.8
					c171.9,107.4,381,118.2,546.2,28.2c145.9-79.5,230.7-223.6,232.6-395.3c1.3-118.3-49-232.3-141.6-321.2
					c-101.5-97.3-241.8-151.2-375.4-144.2c-231.1,12.2-376.2,146-431.3,397.7c-0.7,13.3-5.8,140.2,32.3,222.2
					c38.8,83.6,90.6,160,96.7,168.9L1242.9,1041.8z"/>
			</g>
			<g>
				
					<ellipse transform="matrix(0.9984 -5.702709e-02 5.702709e-02 0.9984 -34.1791 123.269)" class="st0" cx="2142.7" cy="660.5" rx="149.8" ry="206.1"/>
			</g>
			<g class="st1">
				<path class="st2" d="M2165.2,865.1c-76.4,12-148.1-57.8-167.4-159c15.2,4.2,31,5.3,47.1,2.8c81.9-12.9,177.7-109.8,165.3-222.8
					c-0.8-7.6-41.5-20.2-42.9-27.4c62.3,17.4,113.7,87.6,123.7,178.4C2303.4,750.2,2247.1,852.2,2165.2,865.1z"/>
			</g>
			<g>
				<path class="st2" d="M2147.9,881.8c-29.1,0-57.7-10.2-83.5-29.9c-46.4-35.4-77.4-96.1-85.1-166.3
					c-13.3-120.8,48.9-230.6,138.6-244.7c35.8-5.6,71.5,4.2,103.2,28.4c46.4,35.4,77.4,96,85.1,166.3l0,0
					c13.3,120.8-48.9,230.6-138.6,244.7C2161,881.2,2154.4,881.8,2147.9,881.8z M2137.4,469.8c-4.9,0-9.8,0.4-14.8,1.2
					c-73.8,11.6-124.5,106.4-113,211.2c6.7,61.1,34.1,115.4,73.3,145.4c24.9,19,52.5,26.8,79.9,22.5
					c73.8-11.6,124.5-106.4,113-211.2l0,0c-6.7-61.1-34.1-115.4-73.3-145.4C2182.1,477.8,2159.9,469.8,2137.4,469.8z"/>
			</g>
			<g>
				
					<ellipse transform="matrix(0.9997 -2.279749e-02 2.279749e-02 0.9997 -14.757 50.1605)" class="st0" cx="2192.6" cy="672.3" rx="122" ry="163.6"/>
				<path class="st2" d="M2194.4,837.6c-11.8,0-23.6-2.3-35.2-6.9c-65.5-25.7-104-117.6-85.7-204.9c10.2-48.9,36.3-87.8,71.5-106.8
					c25.9-14,53.9-15.8,81.1-5.1c65.5,25.7,104,117.6,85.7,204.9c-10.2,48.9-36.3,87.8-71.5,106.8
					C2225.5,833.6,2210,837.6,2194.4,837.6z M2190.8,510.2c-15.1,0-30,3.9-44.3,11.6c-34.4,18.6-59.8,56.7-69.9,104.7
					c-18,85.8,19.6,176.1,83.7,201.2c26.2,10.3,53.3,8.6,78.4-5c34.4-18.6,59.8-56.7,69.9-104.7c18-85.8-19.6-176.1-83.7-201.2
					C2213.6,512.4,2202.2,510.2,2190.8,510.2z"/>
			</g>
			<g class="st1">
				<path class="st2" d="M2085.6,753.8c-10.8-29.1-13.7-61.2-9.7-92.1c30.2,64.2,93.8,84.7,147.3,45.2c34.6-25.5,56.9-70.3,63-118.1
					c1.9,4,3.7,8.3,5.3,12.7c27.5,74,3.6,168.1-53.3,210.1C2181.4,853.7,2113,827.7,2085.6,753.8z"/>
			</g>
			<g>
				<path class="st2" d="M2197.8,851.2c-21.5,0-42.7-7.6-62.1-22.3c-37.5-28.5-63.6-81.1-69.9-140.8
					c-10.8-101.6,36.2-190.4,106.9-202.1c26.7-4.4,53.4,2.9,77.3,21.1c37.5,28.5,63.6,81.1,69.9,140.8
					c10.8,101.6-36.2,190.4-106.9,202.1C2207.9,850.8,2202.8,851.2,2197.8,851.2z M2187.6,515.3c-3.3,0-6.7,0.3-10,0.8
					c-52.9,8.8-90.2,86-81.5,168.7c5.4,51.4,27.1,96.2,58,119.7c17,13,35.6,18.2,53.8,15.2c52.9-8.8,90.2-86,81.5-168.7
					c-5.4-51.4-27.1-96.2-58-119.7C2217.5,520.8,2202.5,515.3,2187.6,515.3z"/>
			</g>
			<g class="st5">
				<path class="st0" d="M1646.3,288.1c0,0-260.1,30.4-395.6,188.2c-0.1,0.2-0.3,0.3-0.4,0.5c-28.5,33.2-47.5,73.6-55.3,116.7
					c-10.3,57-9.1,97.8-6.6,133.6c7.6,109,31.5,158.7,31.5,158.7c-66-53.3-105.5-116.3-112.8-207.1c-0.7-8.9-1.1-18.2-1.2-27.7
					c0-2.2,0-4.4,0-6.6c0,0,0-0.1,0-0.1c1.2-19.3,3.7-44.5,8.9-72.8c15.6-85.3,55.6-197.9,157.2-255.9
					C1462,207.2,1654.5,276.1,1646.3,288.1z"/>
			</g>
			<g class="st5">
				
					<ellipse transform="matrix(0.9458 -0.3249 0.3249 0.9458 -75.5974 633.3471)" class="st0" cx="1859" cy="543.1" rx="77" ry="89.8"/>
			</g>
			<g class="st5">
				
					<ellipse transform="matrix(0.915 -0.4035 0.4035 0.915 -118.8165 830.8091)" class="st0" cx="1912" cy="697.3" rx="31.8" ry="37.1"/>
			</g>
		</g>
		<g>
			<path class="st2" d="M3023.4,1747.6c-195.5,423.7-770.1,730.7-1448.6,730.7s-1253.2-307-1448.6-730.7H3023.4z"/>
		</g>
		<g>
			<g>
				<path class="st6" d="M2029.6,2219.6l-18,2.8c-3.6,0.6-6.4,3.4-7,7l-2.8,18l-2.8-18c-0.6-3.6-3.4-6.4-7-7l-18-2.8l18-2.8
					c3.6-0.6,6.4-3.4,7-7l2.8-18l2.8,18c0.6,3.6,3.4,6.4,7,7L2029.6,2219.6z"/>
			</g>
			<g>
				<path class="st6" d="M1564.6,2139.6l-18,2.8c-3.6,0.6-6.4,3.4-7,7l-2.8,18l-2.8-18c-0.6-3.6-3.4-6.4-7-7l-18-2.8l18-2.8
					c3.6-0.6,6.4-3.4,7-7l2.8-18l2.8,18c0.6,3.6,3.4,6.4,7,7L1564.6,2139.6z"/>
			</g>
			<g>
				<path class="st6" d="M1737.5,2317.9l-18.1,2.8c-3.6,0.6-6.5,3.4-7,7l-2.8,18.1l-2.8-18.1c-0.6-3.6-3.4-6.5-7-7l-18.1-2.8
					l18.1-2.8c3.6-0.6,6.5-3.4,7-7l2.8-18.1l2.8,18.1c0.6,3.6,3.4,6.5,7,7L1737.5,2317.9z"/>
			</g>
			<g>
				<path class="st6" d="M2559.4,2113.2l-24.5,3.8c-4.9,0.8-8.7,4.6-9.5,9.5l-3.8,24.5l-3.8-24.5c-0.8-4.9-4.6-8.7-9.5-9.5
					l-24.5-3.8l24.5-3.8c4.9-0.8,8.7-4.6,9.5-9.5l3.8-24.5l3.8,24.5c0.8,4.9,4.6,8.7,9.5,9.5L2559.4,2113.2z"/>
			</g>
			<g>
				<path class="st6" d="M358.9,1823.2l-21.2,3.3c-4.3,0.7-7.6,4-8.2,8.2l-3.3,21.2l-3.3-21.2c-0.7-4.3-4-7.6-8.2-8.2l-21.2-3.3
					l21.2-3.3c4.3-0.7,7.6-4,8.2-8.2l3.3-21.2l3.3,21.2c0.7,4.3,4,7.6,8.2,8.2L358.9,1823.2z"/>
			</g>
			<g>
				<path class="st6" d="M1274.9,2070.5l-23,3.5c-4.6,0.7-8.2,4.3-8.9,8.9l-3.5,23l-3.5-23c-0.7-4.6-4.3-8.2-8.9-8.9l-23-3.5l23-3.5
					c4.6-0.7,8.2-4.3,8.9-8.9l3.5-23l3.5,23c0.7,4.6,4.3,8.2,8.9,8.9L1274.9,2070.5z"/>
			</g>
			<g>
				<path class="st6" d="M2288.4,2225.6l-21.9,3.4c-4.4,0.7-7.8,4.1-8.5,8.5l-3.4,21.9l-3.4-21.9c-0.7-4.4-4.1-7.8-8.5-8.5
					l-21.9-3.4l21.9-3.4c4.4-0.7,7.8-4.1,8.5-8.5l3.4-21.9l3.4,21.9c0.7,4.4,4.1,7.8,8.5,8.5L2288.4,2225.6z"/>
			</g>
			<g>
				<path class="st6" d="M954.5,2065.1l-18,2.8c-3.6,0.6-6.4,3.4-7,7l-2.8,18l-2.8-18c-0.6-3.6-3.4-6.4-7-7l-18-2.8l18-2.8
					c3.6-0.6,6.4-3.4,7-7l2.8-18l2.8,18c0.6,3.6,3.4,6.4,7,7L954.5,2065.1z"/>
			</g>
			<g>
				<path class="st6" d="M1001.7,2288.1l-12-13.8c-2.4-2.8-6.3-3.6-9.7-2.2l-16.7,7.3l13.8-12c2.8-2.4,3.6-6.3,2.2-9.7l-7.3-16.7
					l12,13.8c2.4,2.8,6.3,3.6,9.7,2.2l16.7-7.3l-13.7,12c-2.8,2.4-3.6,6.3-2.2,9.7L1001.7,2288.1z"/>
			</g>
			<g>
				<path class="st6" d="M1343.4,2310.2l-20.9,3.2c-4.2,0.6-7.5,3.9-8.1,8.1l-3.2,20.9l-3.2-20.9c-0.6-4.2-3.9-7.5-8.1-8.1
					l-20.9-3.2l20.9-3.2c4.2-0.6,7.5-3.9,8.1-8.1l3.2-20.9l3.2,20.9c0.6,4.2,3.9,7.5,8.1,8.1L1343.4,2310.2z"/>
			</g>
			<g>
				<path class="st6" d="M685.1,2133.9l-18,2.8c-3.6,0.6-6.4,3.4-7,7l-2.8,18l-2.8-18c-0.6-3.6-3.4-6.4-7-7l-18-2.8l18-2.8
					c3.6-0.6,6.4-3.4,7-7l2.8-18l2.8,18c0.6,3.6,3.4,6.4,7,7L685.1,2133.9z"/>
			</g>
			<g>
				<path class="st6" d="M2827.2,1843.4l-21.3,3.3c-4.3,0.7-7.6,4-8.3,8.3l-3.3,21.3l-3.3-21.3c-0.7-4.3-4-7.6-8.3-8.3l-21.3-3.3
					l21.3-3.3c4.3-0.7,7.6-4,8.3-8.3l3.3-21.3l3.3,21.3c0.7,4.3,4,7.6,8.3,8.3L2827.2,1843.4z"/>
			</g>
		</g>
		<g>
			<g>
				<polygon class="st0" points="2395,2114.4 1708.7,2114.4 1743.4,2027.9 1795.1,1899.5 2237.7,1904.1 2339.5,2040.1 				"/>
			</g>
			<g>
				<path class="st2" d="M2425.5,2129.7h-739.4l98.8-245.6l460.6,4.9L2425.5,2129.7z M1731.3,2099.2h633.3L2230,1919.3l-424.6-4.5
					L1731.3,2099.2z"/>
			</g>
			<g>
				<path class="st2" d="M2301,2065.2c-21.2,0.1-42.3-0.3-63.5-0.5l-63.5-1.3c-21.2-0.3-42.4-1.2-63.4-1.7
					c-21.1-0.4-42.3-0.6-63.4-0.6c-42.3-0.6-84.6-0.5-126.9-0.8l-63.5-0.6c-21.2-0.4-42.3-0.5-63.5-1.1c21.1-1.1,42.3-1.7,63.5-2.6
					l63.5-1.5c42.3-0.8,84.7-0.9,127-0.9c21.2,0.2,42.4,0.7,63.5,1.3c21.2,0.8,42.3,1.6,63.5,2.8l63.4,3.4
					C2258.8,2062.4,2279.9,2063.5,2301,2065.2z"/>
			</g>
			<g>
				<path class="st2" d="M2272.7,2018.5c-19.5,0.2-38.9-0.1-58.4-0.1l-58.4-0.9c-38.9-0.7-77.8-2.3-116.7-3.4l-116.6-4
					c-19.4-0.6-38.8-1.2-58.3-0.8c-19.4-0.1-38.9,0.1-58.4-0.2c38.8-2.4,77.8-5.3,116.7-4.8c39,0,77.9,1,116.8,2.2
					c38.9,1.3,77.8,3.1,116.6,5.2l58.3,3C2233.9,2016,2253.3,2017,2272.7,2018.5z"/>
			</g>
			<g>
				<path class="st2" d="M2243.5,1978.2c-17.9-0.1-35.7-0.7-53.6-1l-53.5-1.8l-107-3.2l-107-3.8c-17.8-0.7-35.6-1.2-53.5-1.4
					c-17.9-0.6-35.8-1-53.6-1.9c35.7-1.3,71.3-2.6,107.1-2.4c35.7,0,71.4,1,107.1,2c35.7,1.3,71.4,2.6,107,5l53.5,3.9
					C2207.9,1975.1,2225.7,1976.4,2243.5,1978.2z"/>
			</g>
			<g>
				<path class="st2" d="M2217.3,1939.6c-32.3,3.3-64.9,2-97.3,1.5c-32.4-0.6-64.8-1.7-97.2-2.7l-97.1-3.5
					c-16.2-0.7-32.4-1.3-48.5-1.6c-16.1-0.6-32.6-0.5-48.4-1.5l48.4-2.1c16.2-0.4,32.5-0.5,48.7-0.5c32.4,0,64.8,0.8,97.3,1.8
					c32.4,1.2,64.8,2.5,97.2,4.5c16.2,1,32.3,2,48.5,2.7C2184.9,1939,2201.1,1940,2217.3,1939.6z"/>
			</g>
		</g>
		<g>
			<polygon class="st0" points="2738.2,2006.9 2051.9,2006.9 2138.3,1792 2204.5,1792.6 2580.9,1796.6 			"/>
		</g>
		<g>
			<path class="st0" d="M1649,1782.8l-246.8,222.8c0,0,220-11.3,322-11c83.2,0.2,361.7,21.6,361.7,21.6l64.8-224.1L1649,1782.8z"/>
		</g>
		<g class="st1">
			<path class="st2" d="M2339.5,2040.1h-247.1l-2.6,9.2c0,0-248.8-19.1-346.3-21.4l51.7-128.5l442.6,4.7L2339.5,2040.1z"/>
		</g>
		<g>
			<polygon class="st0" points="2738.2,2006.9 2051.9,2006.9 2138.3,1792 2204.5,1792.6 2580.9,1796.6 			"/>
		</g>
		<g>
			<path class="st2" d="M2768.7,2022.2h-739.4l98.8-245.6l460.6,4.9L2768.7,2022.2z M2074.4,1991.7h633.3l-134.5-179.9l-424.6-4.5
				L2074.4,1991.7z"/>
		</g>
		<g>
			<path class="st2" d="M2644.2,1957.7c-21.2,0.1-42.3-0.3-63.5-0.5l-63.5-1.3c-21.2-0.3-42.4-1.2-63.4-1.7
				c-21.1-0.4-42.3-0.6-63.4-0.6c-42.3-0.6-84.6-0.5-126.9-0.8l-63.5-0.6c-21.2-0.4-42.3-0.5-63.5-1.1c21.1-1.1,42.3-1.7,63.5-2.6
				l63.5-1.5c42.3-0.8,84.7-0.9,127-0.9c21.2,0.2,42.4,0.7,63.5,1.3c21.2,0.8,42.3,1.6,63.5,2.8l63.4,3.4
				C2601.9,1954.9,2623.1,1956,2644.2,1957.7z"/>
		</g>
		<g>
			<path class="st2" d="M2615.9,1911c-19.5,0.2-38.9-0.1-58.4-0.1l-58.4-0.9c-38.9-0.6-77.8-2.3-116.7-3.4l-116.6-4
				c-19.4-0.6-38.8-1.2-58.3-0.8c-19.4-0.1-38.9,0.1-58.4-0.2c38.8-2.4,77.8-5.3,116.7-4.8c39,0,77.9,1,116.8,2.2
				c38.9,1.3,77.8,3.1,116.6,5.2l58.3,3C2577,1908.5,2596.5,1909.5,2615.9,1911z"/>
		</g>
		<g>
			<path class="st2" d="M2586.7,1875.7c-17.9-0.1-35.7-0.7-53.6-1l-53.5-1.8l-107-3.2l-107-3.8c-17.8-0.7-35.6-1.2-53.5-1.4
				c-17.9-0.6-35.8-1-53.6-1.9c35.7-1.3,71.3-2.6,107.1-2.4c35.7,0,71.4,1,107.1,2c35.7,1.3,71.4,2.6,107,5l53.5,3.9
				C2551.1,1872.6,2568.9,1874,2586.7,1875.7z"/>
		</g>
		<g>
			<path class="st2" d="M2560.5,1842.1c-32.3,3.3-64.9,2-97.3,1.5c-32.4-0.6-64.8-1.7-97.2-2.7l-97.1-3.5
				c-16.2-0.7-32.4-1.3-48.5-1.6c-16.1-0.6-32.6-0.5-48.4-1.5l48.4-2.1c16.2-0.4,32.5-0.5,48.7-0.5c32.4,0,64.8,0.8,97.3,1.8
				c32.4,1.2,64.8,2.5,97.2,4.5c16.2,1,32.3,2,48.5,2.7C2528.1,1841.5,2544.3,1842.5,2560.5,1842.1z"/>
		</g>
		<g>
			<path class="st2" d="M55.3,1734.1l94-1.7l94-1.3l188.1-2.5l376.1-3.1c125.4-1.3,250.8-1.4,376.1-2l376.1-0.6l376.1,0.6
				c125.4,0.7,250.8,0.7,376.1,2l376.1,3.1l188.1,2.5l94,1.3l94,1.7c7.5,0.1,13.4,6.3,13.3,13.7c-0.1,7.3-6,13.1-13.3,13.3l-94,1.7
				l-94,1.3l-188.1,2.5l-376.1,3.2c-125.4,1.3-250.8,1.3-376.1,2l-376.1,0.6l-376.1-0.6c-125.4-0.7-250.8-0.7-376.1-2l-376.1-3.1
				l-188.1-2.5l-94-1.3l-94-1.7c-7.5-0.1-13.4-6.3-13.3-13.7C42.2,1740,48.1,1734.2,55.3,1734.1z"/>
		</g>
		<g>
			<path class="st7" d="M1326.9,1972.9l215.9-200.7c0.9-0.8,1.4-1.9,1.4-3.1V1733c0-2.4-2.1-4.4-4.5-4.2L849,1770.9l-320.5,202
				H1326.9z"/>
		</g>
		<g class="st8">
			<path class="st9" d="M1544.1,1752.3v16.8c0,1.2-0.5,2.3-1.4,3.1l-215.9,200.7H528.4l58.4-36.8h725.4L1544.1,1752.3z"/>
		</g>
		<g>
			<path class="st2" d="M1332.9,1988.2H475.6L844.1,1756l694.6-42.4c5.4-0.3,10.6,1.6,14.6,5.3c3.9,3.7,6.1,8.9,6.1,14.2v36.1
				c0,5.4-2.3,10.6-6.2,14.3L1332.9,1988.2z M581.3,1957.7h739.6l208-193.4v-19.5l-675.1,41.2L581.3,1957.7z"/>
		</g>
		<g>
			<polygon class="st7" points="1326.9,1888.1 1544.1,1728.5 849,1728.5 528.4,1888.1 			"/>
		</g>
		<g>
			<polygon class="st0" points="1270.8,1867.9 1412.2,1764.1 959.9,1764.1 751.4,1867.9 			"/>
		</g>
		<g>
			<path class="st2" d="M1330.1,1898.1H485.9l360.7-179.6h684.6c6.2,0,11.6,3.9,13.5,9.8c1.9,5.9-0.1,12.3-5.1,15.9L1330.1,1898.1z
				 M571,1878.1h752.6l190-139.6H851.3L571,1878.1z"/>
		</g>
		<g>
			<g>
				<path class="st7" d="M1306.3,1982.4H398c-5.9,0-11.3-2.4-15.1-6.4c-2.6-2.6-4.5-6-5.4-9.7l-152.8-620
					c-6.6-26.8,13.6-52.6,41.2-52.6h847.9c27.9,0,52.4,18.2,60.7,44.6c0.4,1.3,0.8,2.6,1.1,3.9l151.3,614
					C1330.2,1969.4,1320,1982.4,1306.3,1982.4z"/>
			</g>
		</g>
		<g class="st8">
			<path class="st9" d="M1306.3,1982.4H398c-5.9,0-11.3-2.4-15.1-6.4c111.4,5.4,498.4,8.4,683.2-191
				c118.3-127.7,120.2-327.7,108.4-446.7c0.4,1.3,0.8,2.6,1.1,3.9l151.3,614C1330.2,1969.4,1320,1982.4,1306.3,1982.4z"/>
		</g>
		<g class="st1">
			<path class="st0" d="M271.1,1364.9l152.1,617.5H398c-9.8,0-18.2-6.7-20.6-16.1l-152.8-620c-6.6-26.8,13.6-52.6,41.2-52.6h847.9
				c28.5,0,53.5,19,61.2,46.3c-2.7-0.3-5.3-0.5-8.1-0.5H291.1C277.7,1339.5,267.9,1352,271.1,1364.9z"/>
		</g>
		<g>
			<path class="st2" d="M1306.3,1997.6H398c-16.8,0-31.4-11.4-35.4-27.8l-152.8-620c-4.3-17.3-0.4-35.3,10.6-49.4
				c11-14.1,27.6-22.1,45.4-22.1h847.9c36.4,0,67.9,24.7,76.6,60l151.3,614c2.7,11,0.3,22.3-6.7,31.2
				C1328,1992.5,1317.5,1997.6,1306.3,1997.6z M265.9,1309c-8.4,0-16.2,3.8-21.4,10.4c-5.2,6.6-7,15.1-5,23.2l152.8,620
				c0.7,2.7,3,4.5,5.8,4.5h908.2c2.5,0,4-1.4,4.7-2.3c0.7-0.9,1.7-2.6,1.1-5.1l-151.3-614c-5.3-21.7-24.7-36.8-47-36.8H265.9z"/>
		</g>
		<g class="st1">
			<polygon class="st2" points="2204.5,1792.6 2142.6,2006.9 2051.9,2006.9 2138.3,1792 			"/>
		</g>
		<g>
			<path class="st0" d="M1649,1782.8l-246.8,222.8c0,0,220-11.3,322-11c83.2,0.2,361.7,21.6,361.7,21.6l64.8-224.1L1649,1782.8z"/>
		</g>
		<g>
			<path class="st2" d="M2097.2,2032.3l-12.4-0.9c-2.8-0.2-278.8-21.3-360.6-21.5c-100.4-0.2-319,10.9-321.2,11l-42.9,2.2
				l283.2-255.6l527.6,9.6L2097.2,2032.3z M1720.4,1979.3c1.3,0,2.6,0,3.9,0c73.8,0.2,294.9,16.5,350.4,20.7l55.8-193.1l-475.7-8.7
				l-210.6,190.1C1512.4,1985,1645.6,1979.3,1720.4,1979.3z"/>
		</g>
		<g>
			<path class="st2" d="M1781.6,1785.9c0.1,33.9-6.5,67.3-19.2,96.7l-5.3,12.2c-6,14-21.2,14-27.2,0l-5.4-12.6
				c-12.6-29.1-19.2-62.1-19.2-95.8v-346.8c0-11.9,16.9-21.6,37.7-21.6c20.8,0,37.7,9.7,37.7,21.6c0,0.6,0,1.1-0.1,1.7
				L1781.6,1785.9z"/>
		</g>
		<g>
			<path class="st2" d="M2045.7,1952.4c-20.9-0.3-41.8-1.2-62.8-1.7l-62.7-2.5c-41.7-2.1-83.6-3.4-125.4-4.6
				c-41.8-1.7-83.6-3-125.4-4.3c-20.9-0.8-41.7-0.9-62.7-1.3c-20.9-0.6-41.9-1-62.8-1.8c41.9-1.4,83.6-2.7,125.5-2.6
				c41.9,0.1,83.7,1.4,125.5,2.6l62.7,2.7c20.9,0.9,41.8,2,62.7,3.7l62.6,4.6C2004,1948.8,2024.9,1950.4,2045.7,1952.4z"/>
		</g>
		<g>
			<path class="st2" d="M2067.9,1915.5c-26.4-0.3-52.7-1.1-79-2.3c-13.2-0.5-26.3-1.3-39.4-2c-13.1-0.7-26.3-1.7-39.4-2.2l-78.8-3.9
				c-26.3-1.1-52.6-2.7-78.9-3.4c26.3-2.2,52.7-2.6,79.1-2.5c26.4,0.1,52.7,1,79.1,2.2c26.4,1.4,52.6,3.6,78.9,5.9
				C2015.5,1909.6,2041.7,1912.3,2067.9,1915.5z"/>
		</g>
		<g>
			<path class="st0" d="M2135,1103.7c0,0,69.9,153.8,81.7,328.4c12,177.8-5.4,430.6-419.4,396.3c-145.1-12-138.1-73.7-143.5-146.4
				c-6.7-90.2,3.6-193.7,109-197.5c190.4-7,247.2-48.5,274.3-165.2"/>
		</g>
		<g class="st1">
			<path class="st2" d="M2218.2,1531.3c-8.1,158.9-80.1,325.3-421,297.1c-145.2-12-138.1-73.7-143.5-146.5
				c-3.7-49.3-2.2-102.7,17.1-141.5c0.2,10.7,0.7,21.4,1.5,32c5.4,72.7-1.7,134.4,143.4,146.4
				C2077.5,1740.5,2180.7,1647.5,2218.2,1531.3z"/>
		</g>
		<g>
			<path class="st2" d="M1991.2,1398.3c3.2-6.6,6.9-12.6,10.5-19c3.6-6.3,7.5-12.6,11.2-19.2c7.4-13.2,14.3-27.2,22.3-41.4
				c0.5-0.9,1.6-1.2,2.5-0.7c0.6,0.3,0.9,0.9,0.9,1.5c0.9,16.4-0.8,32.6-4.8,48.7c-2,8-4.5,16.1-8.2,23.7c-3.7,7.6-8.2,14.9-14.3,21
				c-4.9,5-12.9,5-17.9,0.1c-3.9-3.9-4.8-9.7-2.5-14.4L1991.2,1398.3z"/>
		</g>
		<g>
			<path class="st2" d="M1868.9,1846.7c-23.2,0-47.6-1-72.9-3.1c-148.1-12.3-152.3-80-156.4-145.5c-0.3-4.9-0.6-9.9-1-15
				c-6.2-84.2,5.8-142,36.9-176.7c20.9-23.4,50.1-35.9,86.7-37.3c121.1-4.4,185-23.1,220.4-64.4c5.5-6.4,15.1-7.1,21.5-1.6
				c6.4,5.5,7.1,15.1,1.6,21.5c-41.6,48.5-111.9,70.2-242.5,75c-28.4,1-49.7,9.9-65.1,27.1c-25.2,28.2-34.8,78.6-29.2,154
				c0.4,5.2,0.7,10.3,1,15.3c4,64.4,6.7,106.9,128.5,117c152,12.6,262.1-13.6,327.3-77.8c79.8-78.6,82.4-202.8,75.6-302.2
				c-11.5-169.9-79.7-321.6-80.4-323.1c-3.5-7.7-0.1-16.7,7.6-20.2c7.7-3.5,16.7-0.1,20.2,7.6c2.9,6.4,71.2,158.4,83,333.7
				c7.2,105.9,4,238.7-84.7,326C2086.7,1816.7,1993.3,1846.7,1868.9,1846.7z"/>
		</g>
		<g>
			<path class="st2" d="M2159.9,1734.6c-0.2,0-0.4,0-0.7,0c-8.4-0.4-15-7.5-14.6-15.9c10.9-251-144-291.7-150.6-293.3
				c-8.2-2-13.2-10.2-11.3-18.4c2-8.2,10.2-13.2,18.3-11.3c2,0.5,48.4,11.8,93,58.3c40.4,42,87.3,122.3,81,266.1
				C2174.8,1728.2,2168,1734.6,2159.9,1734.6z"/>
		</g>
		<g>
			<g>
				<path class="st2" d="M900.9,1508c-0.4-10.5-0.6-21.2-4.2-31.4c-1.1-1-2.1-2-3.2-3.1c-3.2-0.6-6.3-1.6-9.5-1.9
					c-22.8-2.4-45.3-1.2-67.6,4.1c-29.1,7-54.7,20.1-75.1,42.4c-7.4,8-13.9,16.8-20.7,25.4c-1.8,2.3-3.3,3.4-6.5,2.5
					c-7.4-2.1-15.1-2.4-22.8-1.6c-20.6,2.2-37.8,11.5-53.1,24.7c-16.7,14.4-29.2,32.1-40.5,50.8c-4.8,7.9-1.4,15.4,7.8,17
					c5.8,1,11.6,1.9,17.4,2.9c13.9,2.3,27.7,4.5,41.6,6.8c0,0.4,0.1,0.6,0.1,0.8c-0.1,0.3-0.1,0.6-0.3,0.9
					c-4.4,7.9-2.1,14.3,4.6,19.5c0.7,0.6,1.4,1.3,2,2c3.6,3.5,7.4,7.1,11.2,10.8c-3.9,4.1-7.8,7.6-11.1,11.7c-1.7,2-3,4.9-3.3,7.5
					c-0.6,4.3,2.1,8.1,6.1,9.7c4.2,1.7,8.2,1,11.4-2.1c4.1-3.9,7.9-8.1,12-12.3c5.2,5.1,10.2,9.9,15.2,14.7c5.7,5.4,9.1,6,16.2,2.8
					c1.3-0.6,2.6-1.1,4.1-1.7c0.3,1.6,0.7,2.8,0.9,4c3.8,19,7.6,37.9,11.5,56.8c1.8,9,9.6,12.2,17.2,7c6.8-4.6,13.6-9.4,20.3-14.4
					c15.3-11.6,28.7-24.9,38.6-41.5c12.3-20.8,17.6-42.8,10-66.7c-0.3-0.9,0.2-2.7,1-3.3c6.7-5.9,13.6-11.5,20.3-17.5
					c15.1-13.5,26.5-29.7,34.5-48.3C897.8,1561.9,901.9,1535.3,900.9,1508z M672.8,1626.9c-16-2.7-32.7-5.5-49.7-8.3
					c14.1-20.4,29.6-38.7,52.6-48.9c9.9-4.4,21.9-6,29.4-4.2C694.3,1585.8,683.7,1606.2,672.8,1626.9z M813.2,1686.1
					c-2,13-7.9,24.2-15.7,34.6c-9.7,12.8-21.7,23-34.8,32.7c-3.5-17.4-7-34.5-10.4-51.2c20.3-11.7,40.2-23.1,60.2-34.5
					C814.2,1673.4,814.1,1679.7,813.2,1686.1z M875.2,1556.5c-4.5,17.5-11.4,33.8-22.5,48.1c-8.6,11-18.9,20.3-29.8,28.9
					c-29.8,23.3-62.7,41.2-96.7,57.2c-1.7,0.8-2.7,0.8-4.1-0.6c-3-3.2-6.3-6.1-9.5-9.2c-0.2-0.2-0.3-0.5-0.7-1.1
					c0.8-0.9,1.7-1.7,2.5-2.6c18-18.7,36.1-37.3,54.1-56c5.2-5.3,4.3-13.1-1.8-16.7c-4.3-2.5-9.3-1.7-13.2,2.2
					c-10.8,11.2-21.6,22.4-32.4,33.6c-8.1,8.3-16,16.6-24.4,25.3c-3.9-3.7-7.6-7.2-11-10.8c-0.6-0.7-0.4-2.6,0.1-3.6
					c8.4-17.8,16.7-35.7,25.6-53.3c8.8-17.5,19.3-34,31.2-49.4c11.2-14.6,23.7-27.9,39.8-37.1c10.3-5.9,21.2-10.6,32.8-13.6
					c1-0.3,2.7,0.5,3.6,1.4c14.2,13.6,28.3,27.3,42.5,40.9c4.2,4.1,8.4,8.2,12.8,12.2C875.4,1553.6,875.7,1554.7,875.2,1556.5z
					 M879.1,1533.9c-14.1-13.6-27.8-26.9-41.6-40.2c0-0.3,0-0.8,0-1.1c13.6-0.4,27.3-0.8,41.1-1.2
					C880.5,1505.9,880.4,1519.6,879.1,1533.9z"/>
			</g>
			<g>
				<path class="st0" d="M874.1,1552.3c-4.3-4-8.5-8.2-12.8-12.2c-14.1-13.7-28.2-27.3-42.5-40.9c-0.9-0.9-2.6-1.7-3.6-1.4
					c-11.5,3-22.4,7.6-32.8,13.6c-16.1,9.2-28.6,22.5-39.8,37.1c-11.9,15.5-22.4,32-31.2,49.4c-8.9,17.6-17.2,35.5-25.6,53.3
					c-0.5,1-0.7,2.9-0.1,3.6c3.4,3.6,7.2,7,11,10.8c8.4-8.7,16.4-17,24.4-25.3c10.8-11.2,21.6-22.4,32.4-33.6
					c3.9-4,8.9-4.8,13.2-2.2c6.1,3.6,7,11.3,1.8,16.7c-18,18.7-36.1,37.4-54.1,56c-0.9,0.9-1.7,1.8-2.5,2.6c0.3,0.6,0.5,0.9,0.7,1.1
					c3.2,3.1,6.5,6.1,9.5,9.2c1.4,1.4,2.5,1.4,4.1,0.6c34-16.1,67-34,96.7-57.2c11-8.6,21.2-17.9,29.8-28.9
					c11.1-14.3,18-30.7,22.5-48.1C875.7,1554.7,875.4,1553.6,874.1,1552.3z M842,1581.3c-13.8,14.1-36.2,14.5-50.2,0.9
					c-14.1-13.5-14.4-36-0.8-50.2c13.4-13.9,35.8-14.2,49.9-0.7C854.8,1544.8,855.4,1567.5,842,1581.3z"/>
			</g>
			<g>
				<path class="st10" d="M879.1,1533.9c-14.1-13.6-27.8-26.9-41.6-40.2c0-0.4,0-0.7,0-1.1c13.6-0.4,27.3-0.8,41.2-1.2
					C880.5,1505.9,880.4,1519.6,879.1,1533.9z"/>
			</g>
			<g>
				<path class="st10" d="M705,1565.5c-10.7,20.3-21.4,40.7-32.3,61.4c-16.1-2.7-32.7-5.5-49.8-8.3c14.1-20.4,29.6-38.7,52.6-48.9
					C685.5,1565.2,697.5,1563.7,705,1565.5z"/>
			</g>
			<g>
				<path class="st10" d="M797.5,1720.6c-9.7,12.8-21.6,23-34.8,32.7c-3.5-17.4-7-34.5-10.4-51.2c20.3-11.7,40.2-23,60.3-34.5
					c1.7,5.7,1.6,12.1,0.7,18.4C811.2,1699.1,805.3,1710.3,797.5,1720.6z"/>
			</g>
			<g>
				<path class="st2" d="M840.9,1531.3c-14.1-13.5-36.6-13.2-49.9,0.7c-13.6,14.2-13.3,36.6,0.8,50.2c14,13.6,36.4,13.1,50.2-0.9
					C855.4,1567.5,854.8,1544.8,840.9,1531.3z M829.5,1569.9c-7,7.2-18.8,7.3-26.1,0.4c-7.6-7.2-7.6-19.3-0.2-26.8
					c7-7.1,19-7.2,26.1-0.1C836.8,1550.6,836.9,1562.4,829.5,1569.9z"/>
			</g>
			<g>
				<path class="st3" d="M829.5,1569.9c-7,7.2-18.8,7.3-26.1,0.4c-7.5-7.1-7.6-19.3-0.2-26.8c7-7.1,19-7.2,26.1-0.2
					C836.8,1550.6,836.9,1562.4,829.5,1569.9z"/>
			</g>
		</g>
	</g>
</g>
</svg>
